<?xml version="1.0" standalone="no"?><!DOCTYPE svg PUBLIC "-//W3C//DTD SVG 1.1//EN" "http://www.w3.org/Graphics/SVG/1.1/DTD/svg11.dtd"><svg t="1709385334921" class="icon" viewBox="0 0 1024 1024" version="1.1" xmlns="http://www.w3.org/2000/svg" p-id="7146" xmlns:xlink="http://www.w3.org/1999/xlink" width="32" height="32"><path d="M512 42.666667C251.733333 42.666667 42.666667 251.733333 42.666667 512s209.066667 469.333333 469.333333 469.333333 469.333333-209.066667 469.333333-469.333333S772.266667 42.666667 512 42.666667z m0 853.333333c-213.333333 0-384-170.666667-384-384s170.666667-384 384-384 384 170.666667 384 384-170.666667 384-384 384z m157.866667-541.866667c-17.066667-17.066667-42.666667-17.066667-59.733334 0L512 452.266667 413.866667 354.133333c-17.066667-17.066667-42.666667-12.8-59.733334 4.266667-17.066667 17.066667-17.066667 42.666667 0 59.733333l98.133334 98.133334-98.133334 98.133333c-17.066667 17.066667-21.333333 42.666667-4.266666 59.733333 17.066667 17.066667 42.666667 21.333333 59.733333 4.266667l4.266667-4.266667 98.133333-98.133333 98.133333 98.133333c17.066667 17.066667 46.933333 12.8 59.733334-4.266666 12.8-17.066667 12.8-38.4 0-55.466667L571.733333 512l98.133334-98.133333c17.066667-17.066667 17.066667-42.666667 0-59.733334z" p-id="7147"></path></svg>