<?xml version="1.0" standalone="no"?><!DOCTYPE svg PUBLIC "-//W3C//DTD SVG 1.1//EN" "http://www.w3.org/Graphics/SVG/1.1/DTD/svg11.dtd"><svg t="1709385319107" class="icon" viewBox="0 0 1024 1024" version="1.1" xmlns="http://www.w3.org/2000/svg" p-id="6123" xmlns:xlink="http://www.w3.org/1999/xlink" width="32" height="32"><path d="M511.956496 0C229.2053 0 0 229.2053 0 511.966732c0 282.751196 229.2053 512.033268 511.956496 512.033268 282.833086 0 512.038386-229.282072 512.038386-512.033268C1023.994882 229.2053 794.789582 0 511.956496 0z m0 967.132437c-250.926652 0-455.094051-204.167399-455.094051-455.170823 0-250.926652 204.167399-455.094051 455.094051-455.094051 251.003424 0 455.165705 204.167399 455.165704 455.094051 0.005118 251.003424-204.162281 455.170823-455.165704 455.170823z" p-id="6124"></path><path d="M739.580293 341.282152h-28.507994v28.513113h-28.431223v28.431222h-28.441459v28.436341h-28.431222v28.431223h-28.431223v28.43634h-28.436341v28.436341h-28.431222v28.426105h-28.513113v28.513112h-28.431223v28.431223h-28.431222v28.441459h-28.436341v-28.441459h-28.431223v-28.431223h-28.43634v-28.513112h-28.431223v-28.426105h-28.513113v-28.436341H227.547025v56.862446h28.431223v28.513112h28.436341v28.431223h28.431222v28.441459h28.513113v28.431222h28.431223v28.431223h28.43634v28.436341h85.298786v-28.436341h28.431223v-28.431223h28.513113v-28.431222h28.431222v-28.441459h28.436341v-28.431223h28.431223v-28.513112h28.431222v-28.426105h28.441459v-28.436341h28.431223v-28.43634h28.507994v-28.431223h28.436341v-28.436341h28.431223v-85.370439h-56.867564z" p-id="6125"></path></svg>